<svg fill="none" height="24" viewBox="0 0 24 24" width="24" xmlns="http://www.w3.org/2000/svg"><path clip-rule="evenodd" d="m13.165 11.9935-.0016-.3541c-.0121-1.4045-.0968-2.65754-.2428-3.45165 0-.01432-.1593-.80191-.2607-1.06407-.1593-.37893-.4473-.70057-.8084-.90435-.2891-.14541-.5923-.21921-.9098-.21921-.2495.01157-.6611.13714-.95478.24242l-.24409.09355c-1.61671.64219-4.70722 2.74059-5.89084 4.02391l-.08726.0897-.38946.4203c-.24545.3216-.37527.7148-.37527 1.1378 0 .379.11563.7579.3469 1.0641.06924.0992.18076.2265.28003.334l.37907.3968c1.30446 1.3217 4.12885 3.1756 5.59283 3.7899 0 .0132.90977.3932 1.34287.4075h.0578c.6644 0 1.2851-.3789 1.6026-.9913.0867-.1675.1699-.4955.2331-.7835l.1138-.5439c.1298-.8746.216-2.2163.216-3.6879zm6.3317 1.525c.8302 0 1.5033-.6797 1.5033-1.5179 0-.8383-.6731-1.5179-1.5033-1.5179l-3.6992.3271c-.6512 0-1.1792.5321-1.1792 1.1908 0 .6576.528 1.1907 1.1792 1.1907z" fill="#000" fill-rule="evenodd"/></svg>