<svg fill="none" height="24" viewBox="0 0 24 24" width="24" xmlns="http://www.w3.org/2000/svg"><path clip-rule="evenodd" d="m10.835 12.0067.0016.3541c.0121 1.4045.0968 2.6576.2428 3.4517 0 .0143.1593.8019.2607 1.0641.1593.3789.4473.7005.8084.9043.2891.1454.5923.2192.9098.2192.2495-.0115.6611-.1371.9548-.2424l.2441-.0935c1.6167-.6422 4.7072-2.7406 5.8908-4.0239l.0873-.0897.3894-.4203c.2455-.3217.3753-.7149.3753-1.1379 0-.3789-.1156-.7578-.3469-1.0641-.0692-.0992-.1808-.2264-.28-.334l-.3791-.3968c-1.3045-1.32166-4.1288-3.17555-5.5928-3.78981 0-.01322-.9098-.39325-1.3429-.40757h-.0578c-.6644 0-1.2851.37893-1.6026.99137-.0867.16744-.1699.49541-.2331.78346l-.1138.54388c-.1298.87461-.216 2.21627-.216 3.68787zm-6.33175-1.5249c-.83017 0-1.50325.6796-1.50325 1.5179 0 .8382.67308 1.5179 1.50325 1.5179l3.69923-.3272c.65127 0 1.17926-.532 1.17926-1.1907 0-.6576-.52799-1.1908-1.17926-1.1908z" fill="#000" fill-rule="evenodd"/></svg>